<svg width="80" height="80" viewBox="0 0 80 80" fill="none" xmlns="http://www.w3.org/2000/svg">
<rect width="79.9383" height="80" rx="39.9692" fill="#71C7F8"/>
<path d="M24 27.5556C24 25.5919 25.5919 24 27.5556 24H33.3853C34.1505 24 34.8299 24.4897 35.0719 25.2156L37.7346 33.2039C38.0144 34.0432 37.6345 34.9606 36.8431 35.3562L32.8302 37.3627C34.7898 41.7088 38.2912 45.2102 42.6373 47.1698L44.6438 43.1569C45.0394 42.3655 45.9568 41.9856 46.7961 42.2654L54.7844 44.9281C55.5103 45.1701 56 45.8495 56 46.6147V52.4444C56 54.4081 54.4081 56 52.4444 56H50.6667C35.9391 56 24 44.0609 24 29.3333V27.5556Z" stroke="white" stroke-width="2" stroke-linecap="round" stroke-linejoin="round"/>
</svg>
